<?xml version="1.0" standalone="no"?>
<!DOCTYPE svg PUBLIC "-//W3C//DTD SVG 20010904//EN"
 "http://www.w3.org/TR/2001/REC-SVG-20010904/DTD/svg10.dtd">
<svg version="1.0" xmlns="http://www.w3.org/2000/svg"
 width="1024.000000pt" height="1024.000000pt" viewBox="0 0 1024.000000 1024.000000"
 preserveAspectRatio="xMidYMid meet">

<g transform="translate(0.000000,1024.000000) scale(0.100000,-0.100000)"
fill="#092d2a" stroke="none">
<path d="M0 5120 l0 -5120 5120 0 5120 0 0 5120 0 5120 -5120 0 -5120 0 0
-5120z m3580 2064 c0 -261 -4 -296 -34 -316 -6 -4 -64 -8 -129 -8 l-119 0 4
138 c3 128 5 140 31 187 28 51 220 265 238 265 5 0 9 -111 9 -266z m3333 -7
c25 -51 27 -66 27 -186 l0 -131 -117 0 c-65 0 -123 4 -130 8 -6 4 -17 20 -22
35 -12 31 -15 333 -4 466 l6 85 107 -110 c73 -76 115 -128 133 -167z m-2903
-30 c0 -192 -10 -250 -61 -356 -39 -80 -150 -198 -216 -230 -26 -13 -50 -25
-52 -27 -2 -2 31 -36 73 -75 115 -108 132 -158 76 -223 -38 -42 -86 -54 -134
-31 -44 21 -334 323 -363 378 -12 23 -25 61 -29 85 l-7 42 96 0 c176 0 243 28
290 119 23 46 27 67 27 134 l0 79 141 144 c78 79 146 141 150 138 5 -3 9 -83
9 -177z m2330 96 c47 -49 109 -113 138 -144 l54 -56 1 -89 c2 -76 6 -95 28
-134 53 -90 101 -110 260 -110 l109 0 0 -37 c0 -71 -40 -130 -189 -285 -169
-175 -189 -191 -243 -190 -74 1 -126 61 -113 131 5 28 26 55 92 120 46 45 83
84 81 85 -2 2 -31 19 -65 40 -103 61 -190 170 -235 294 -18 48 -22 87 -26 244
-4 182 -2 218 15 218 5 0 47 -39 93 -87z m-1863 -454 c35 -22 73 -91 73 -134
0 -15 -11 -47 -25 -70 -42 -73 -127 -95 -206 -55 -57 29 -81 72 -76 136 9 124
129 187 234 123z m1448 2 c38 -22 75 -86 75 -131 0 -86 -76 -154 -166 -147
-124 9 -186 136 -114 235 17 23 31 42 33 42 1 0 20 7 42 15 44 16 85 12 130
-14z m-2722 -615 l148 -155 155 -3 156 -3 29 -33 c55 -61 31 -153 -46 -182
-15 -6 -95 -10 -178 -10 -127 0 -159 4 -192 19 -52 24 -361 336 -370 374 -4
15 -4 38 -1 51 8 34 53 84 79 89 66 13 67 12 220 -147z m4077 138 c55 -33 74
-98 46 -152 -20 -37 -324 -335 -363 -356 -26 -13 -64 -16 -196 -16 -154 0
-166 1 -198 23 -82 55 -79 157 7 193 23 10 76 14 173 14 l139 0 126 133 c174
182 201 199 266 161z m-1319 -4 c125 -24 243 -117 301 -239 24 -51 33 -83 36
-143 l5 -78 -122 0 -121 0 0 47 c0 68 -33 129 -89 164 l-46 29 -811 -2 -812
-3 -38 -31 c-47 -38 -76 -92 -82 -154 l-4 -47 -76 -7 c-126 -10 -162 -8 -169
11 -4 9 1 55 11 103 37 184 161 317 328 349 63 13 1623 13 1689 1z m-204 -443
c23 -22 28 -36 28 -76 0 -59 -28 -95 -84 -111 -22 -6 -255 -10 -594 -10 -592
0 -598 0 -640 47 -27 30 -32 84 -12 122 31 62 20 61 677 58 l598 -2 27 -28z
m-1567 -182 c0 -20 40 -65 173 -198 95 -95 266 -268 380 -384 l206 -213 172 0
172 0 281 288 c440 450 460 471 471 501 l10 29 127 1 127 2 -6 -38 c-14 -96
-43 -136 -285 -382 -482 -490 -551 -557 -608 -587 l-55 -29 -230 0 -230 0 -59
28 c-52 24 -109 78 -445 418 -224 227 -398 411 -413 438 -27 46 -51 135 -40
146 3 3 61 5 129 5 l123 0 0 -25z m-525 -130 c33 -32 36 -84 8 -138 -16 -33
-67 -57 -117 -57 -19 0 -41 -2 -49 -5 -8 -4 -97 -95 -198 -203 -101 -108 -198
-211 -215 -229 -27 -27 -39 -33 -76 -33 -96 0 -148 95 -97 179 26 43 443 467
484 492 24 15 50 19 133 19 96 0 105 -2 127 -25z m3406 -222 c261 -262 282
-290 265 -358 -12 -47 -59 -85 -104 -85 -38 0 -46 7 -194 158 -85 86 -187 191
-227 233 l-72 77 -66 4 c-60 4 -68 7 -99 41 -25 27 -34 46 -34 73 0 82 37 103
180 104 l104 0 247 -247z m-1576 137 c52 -20 68 -117 26 -164 -43 -49 -58 -51
-372 -54 -337 -4 -363 0 -421 58 -58 58 -51 119 18 155 24 12 86 15 376 15
206 0 357 -4 373 -10z m-1550 -154 c35 -15 65 -59 65 -96 0 -41 -31 -78 -269
-315 l-241 -240 0 -208 c0 -168 -3 -214 -15 -238 -29 -56 -106 -66 -157 -20
l-33 29 -3 239 c-2 131 0 254 3 273 6 28 53 81 267 297 238 239 299 292 336
293 7 0 28 -6 47 -14z m2438 0 c32 -14 342 -314 472 -456 37 -41 74 -89 81
-107 11 -24 14 -92 14 -264 0 -193 -3 -237 -16 -266 -11 -22 -22 -32 -31 -29
-8 3 -11 2 -8 -4 8 -14 -56 -23 -85 -12 -14 5 -34 20 -45 32 -18 20 -20 38
-23 239 l-3 218 -244 243 c-134 134 -249 256 -256 272 -15 37 -4 90 24 115 39
36 70 41 120 19z m-2111 -332 c33 -17 48 -43 48 -82 0 -40 -44 -93 -234 -282
l-156 -155 0 -98 c0 -145 -30 -197 -112 -197 -27 0 -47 8 -70 29 l-33 29 -3
123 c-6 211 -22 181 221 426 242 244 252 251 339 207z m1842 -12 c55 -37 382
-378 401 -418 18 -39 21 -273 4 -323 -27 -78 -149 -80 -188 -2 -15 30 -18 52
-14 131 l5 95 -195 200 c-130 133 -197 209 -199 226 -9 62 24 111 83 122 34 6
59 -1 103 -31z m-3494 -1349 c95 -42 146 -127 138 -230 -11 -157 -112 -233
-308 -233 l-70 0 0 -75 c0 -63 -3 -76 -19 -85 -28 -14 -63 -12 -89 6 -22 15
-22 16 -22 319 0 279 1 305 18 315 11 7 69 9 162 7 119 -3 153 -7 190 -24z
m394 11 c14 -13 16 -56 16 -314 0 -297 0 -299 -22 -314 -31 -22 -64 -20 -88 4
-19 19 -20 33 -20 312 0 257 2 294 17 310 20 22 76 24 97 2z m675 -11 c23 -28
21 -54 -7 -85 -12 -15 -32 -18 -99 -18 l-83 0 0 -232 c0 -128 -3 -243 -6 -255
-9 -32 -56 -49 -94 -33 -16 7 -31 13 -32 14 -1 0 -5 114 -8 251 l-5 250 -85 3
c-72 2 -88 6 -102 23 -25 29 -22 55 7 84 l24 25 235 0 235 0 20 -27z m493 15
c43 -13 128 -81 128 -103 0 -13 -67 -75 -82 -75 -4 0 -24 11 -44 25 -20 13
-51 27 -69 31 -42 8 -125 -19 -153 -49 -80 -85 -64 -242 31 -305 33 -22 51
-27 99 -26 49 1 66 6 102 31 l44 31 43 -44 43 -44 -25 -26 c-13 -14 -46 -38
-74 -52 -43 -23 -62 -27 -140 -27 -75 0 -98 4 -137 24 -61 31 -120 92 -155
161 -23 47 -28 67 -28 135 0 73 4 88 34 149 40 78 90 125 164 154 60 24 159
28 219 10z m388 -8 c18 -18 20 -33 20 -135 l0 -115 135 0 135 0 0 117 c0 94 3
120 17 135 20 22 85 24 103 3 9 -11 13 -94 14 -315 1 -325 3 -312 -53 -327
-15 -3 -35 0 -50 8 -25 14 -26 19 -31 129 l-5 115 -132 3 -133 3 0 -111 c0
-97 -2 -112 -20 -130 -24 -24 -67 -26 -98 -4 -22 15 -22 17 -22 311 0 262 2
299 17 315 22 24 77 24 103 -2z m925 1 c47 -21 105 -68 105 -84 0 -15 -61 -77
-77 -77 -7 0 -32 10 -55 23 -89 46 -201 19 -184 -46 7 -28 26 -38 151 -72 97
-27 128 -45 163 -95 24 -35 29 -99 13 -143 -16 -42 -73 -99 -119 -118 -65 -28
-182 -26 -247 5 -45 21 -105 69 -105 85 0 3 9 21 20 38 28 46 60 51 106 16 33
-24 46 -28 105 -28 57 0 72 4 90 22 33 32 14 68 -43 84 -141 37 -180 52 -209
76 -35 30 -68 94 -69 133 0 40 45 125 80 150 71 50 201 65 275 31z m722 -3
c31 -29 30 -71 -3 -97 -22 -17 -41 -21 -110 -21 l-84 0 0 -244 c0 -242 0 -245
-22 -260 -29 -21 -61 -20 -87 2 -20 16 -21 26 -24 262 l-2 245 -93 5 c-67 4
-95 9 -102 20 -17 26 -11 68 12 90 21 19 34 20 257 20 227 0 235 -1 258 -22z
m373 -48 c51 -97 239 -496 246 -524 12 -49 -83 -88 -119 -48 -8 9 -26 40 -39
67 l-23 50 -135 0 -135 0 -29 -60 c-33 -70 -40 -76 -85 -73 -45 4 -80 47 -64
80 6 13 38 88 71 168 86 207 160 361 185 388 16 17 30 22 57 20 32 -3 38 -9
70 -68z m710 49 c48 -22 110 -75 110 -95 0 -14 -66 -74 -81 -74 -5 0 -27 12
-48 26 -81 53 -211 23 -250 -59 -31 -65 -35 -109 -17 -165 41 -122 160 -162
274 -92 45 27 52 26 97 -20 l39 -40 -25 -26 c-67 -72 -213 -104 -318 -69 -70
23 -161 107 -192 177 -34 78 -33 202 2 278 35 73 97 134 162 159 72 28 186 28
247 0z m354 5 c13 -12 16 -38 16 -120 0 -57 3 -104 8 -104 4 0 59 54 122 120
l116 120 57 0 c46 0 58 -4 67 -20 9 -17 -4 -36 -111 -150 l-121 -130 33 -42
c19 -24 68 -84 109 -135 42 -50 82 -103 90 -118 14 -25 13 -28 -9 -46 -29 -24
-89 -24 -117 -1 -12 9 -58 63 -103 120 -45 56 -85 102 -88 102 -4 0 -15 -7
-25 -17 -14 -13 -18 -31 -18 -87 0 -91 -6 -111 -36 -125 -38 -17 -69 -13 -90
10 -18 20 -19 39 -18 311 2 261 4 291 19 309 22 23 77 25 99 3z"/>
<path d="M6923 4284 c-3 -8 -2 -19 3 -24 5 -5 10 1 10 16 2 27 -4 31 -13 8z"/>
<path d="M2382 3403 l3 -108 60 -1 c87 -2 122 5 150 33 33 34 41 82 20 126
-22 46 -50 57 -151 57 l-85 0 3 -107z"/>
<path d="M6479 3345 l-26 -75 37 -10 c21 -6 51 -7 68 -4 l30 6 -30 67 c-47
101 -49 101 -79 16z"/>
</g>
</svg>
