<?xml version="1.0" standalone="no"?>
<!DOCTYPE svg PUBLIC "-//W3C//DTD SVG 20010904//EN"
 "http://www.w3.org/TR/2001/REC-SVG-20010904/DTD/svg10.dtd">
<svg version="1.0" xmlns="http://www.w3.org/2000/svg"
 width="2880.000000pt" height="2880.000000pt" viewBox="0 0 2880.000000 2880.000000"
 preserveAspectRatio="xMidYMid meet">

<g transform="translate(0.000000,2880.000000) scale(0.100000,-0.100000)"
fill="#008478" stroke="none">
<path d="M13970 28794 c-47 -2 -179 -8 -295 -14 -3186 -161 -6232 -1376 -8650
-3452 -550 -472 -1081 -1003 -1553 -1553 -1882 -2193 -3062 -4906 -3381 -7780
-66 -587 -85 -956 -85 -1595 0 -639 19 -1008 85 -1595 319 -2874 1499 -5587
3381 -7780 472 -550 1003 -1081 1553 -1553 2193 -1882 4906 -3062 7780 -3381
587 -66 956 -85 1595 -85 639 0 1008 19 1595 85 2874 319 5587 1499 7780 3381
550 472 1081 1003 1553 1553 1882 2193 3062 4906 3381 7780 66 587 85 956 85
1595 0 639 -19 1008 -85 1595 -319 2874 -1499 5587 -3381 7780 -472 550 -1003
1081 -1553 1553 -2193 1882 -4906 3061 -7780 3381 -275 31 -532 52 -845 71
-174 11 -1017 21 -1180 14z m7473 -7929 c310 -335 452 -549 508 -765 26 -97
41 -437 37 -830 l-3 -285 -440 1 c-456 1 -571 8 -606 40 -11 10 -35 50 -54 88
-54 111 -60 213 -60 1051 0 692 8 910 41 1230 l7 60 225 -230 c123 -126 279
-288 345 -360z m-13489 550 c25 -100 37 -1659 15 -1990 -16 -246 -44 -349
-109 -397 -45 -33 -126 -39 -592 -45 l-458 -6 0 88 c0 172 20 782 30 895 21
245 75 354 327 661 289 352 730 819 773 819 5 0 11 -11 14 -25z m11252 -563
c54 -49 254 -250 444 -448 190 -197 411 -427 491 -510 l146 -152 6 -308 c8
-417 24 -488 160 -692 115 -171 234 -268 390 -317 160 -51 232 -57 680 -62
l417 -5 0 -126 c0 -144 -15 -219 -65 -329 -97 -211 -306 -463 -848 -1021 -414
-428 -570 -567 -703 -629 -54 -26 -69 -28 -174 -27 -128 1 -189 17 -286 79
-168 107 -246 338 -175 524 33 87 122 192 419 494 238 242 282 291 271 302 -8
8 -83 56 -166 107 -228 139 -324 210 -461 343 -211 203 -358 403 -493 670
-126 250 -176 414 -199 655 -28 296 -43 1334 -20 1449 10 54 32 91 55 91 6 0
56 -40 111 -88z m-9454 8 c18 -120 29 -687 19 -996 -15 -445 -36 -608 -111
-835 -118 -361 -290 -628 -610 -950 -198 -200 -291 -270 -489 -375 -83 -43
-151 -83 -151 -89 0 -5 123 -131 273 -280 280 -277 371 -383 429 -502 31 -63
33 -75 33 -168 0 -95 -2 -103 -35 -165 -49 -91 -167 -208 -250 -249 -90 -43
-171 -57 -254 -43 -142 23 -224 84 -569 422 -414 405 -938 977 -1059 1155 -36
55 -93 191 -123 297 -20 72 -54 266 -47 273 3 3 147 5 321 5 440 0 626 19 823
84 53 18 122 48 154 67 166 99 317 310 385 540 20 67 22 101 26 382 l5 308
496 499 c494 495 683 673 712 667 9 -1 18 -19 22 -47z m1808 -2100 c110 -37
177 -78 248 -155 120 -129 213 -329 215 -464 1 -132 -84 -313 -207 -437 -129
-129 -246 -178 -426 -178 -115 0 -193 17 -296 64 -249 113 -366 300 -350 560
7 122 26 195 78 300 76 156 231 283 396 325 83 21 257 13 342 -15z m6004 14
c192 -49 333 -169 435 -373 38 -75 71 -196 71 -260 -1 -216 -146 -440 -350
-539 -299 -146 -671 -53 -847 210 -73 109 -98 197 -97 333 1 168 34 249 178
443 l74 99 133 46 c74 25 143 48 154 50 49 11 192 6 249 -9z m5751 -2025 c106
-40 222 -141 275 -240 63 -119 73 -248 28 -378 -32 -92 -143 -217 -578 -651
-518 -518 -886 -857 -975 -899 -62 -29 -132 -40 -323 -52 -221 -14 -1052 -6
-1132 11 -156 33 -330 183 -392 338 -18 46 -22 77 -23 157 0 92 3 106 31 166
57 119 177 212 315 243 114 26 325 36 779 36 l446 0 144 153 c851 901 1048
1084 1220 1131 62 17 110 13 185 -15z m-17568 -4 c109 -46 281 -209 862 -820
178 -187 346 -362 372 -389 l48 -50 648 -13 648 -12 55 -62 c154 -173 185
-240 185 -400 0 -104 -1 -107 -42 -191 -69 -139 -194 -236 -331 -258 -97 -16
-435 -30 -712 -30 -435 0 -631 20 -755 75 -101 44 -304 224 -728 644 -447 443
-763 790 -816 896 -17 34 -21 60 -21 136 1 52 7 111 14 132 24 67 80 148 151
222 71 74 125 108 192 124 63 15 190 13 230 -4z m11588 -35 c270 -6 524 -15
565 -21 183 -27 466 -150 660 -287 123 -86 355 -318 443 -442 76 -108 204
-357 241 -473 39 -119 55 -222 71 -457 8 -118 15 -225 15 -237 l0 -23 -503 0
-504 0 -6 155 c-10 237 -47 365 -148 511 -68 97 -135 157 -289 255 l-125 81
-2000 -6 c-1100 -3 -2623 -9 -3384 -12 l-1383 -7 -115 -95 c-257 -212 -354
-398 -386 -738 l-12 -129 -60 -7 c-154 -18 -447 -39 -615 -45 -212 -7 -287 4
-328 44 -24 24 -25 27 -19 136 9 166 51 381 113 572 46 144 177 406 261 525
236 329 584 567 968 661 117 28 470 39 1590 49 1148 10 4270 4 4950 -10z
m-303 -1842 c127 -135 133 -150 133 -328 0 -125 -3 -153 -22 -203 -45 -119
-138 -207 -271 -257 -82 -31 -229 -38 -1062 -51 -880 -13 -3332 -7 -3580 10
-327 22 -430 52 -525 152 -81 85 -117 167 -123 284 -3 57 0 113 8 146 15 63
68 173 104 216 63 75 215 108 581 127 39 2 1105 2 2370 1 l2299 -3 88 -94z
m-6502 -753 c6 -90 27 -126 171 -289 61 -70 562 -583 1113 -1139 551 -557
1199 -1216 1440 -1464 l438 -453 713 0 713 0 1299 1333 c1872 1920 1791 1832
1848 1995 l29 79 299 6 c165 4 403 7 529 7 226 0 228 0 228 -21 0 -50 -42
-270 -66 -344 -66 -204 -205 -399 -550 -770 -341 -367 -2209 -2257 -2589
-2618 -221 -211 -374 -341 -465 -399 -30 -19 -112 -65 -181 -101 l-126 -67
-951 0 -952 0 -172 83 c-251 121 -323 179 -831 673 -486 474 -1729 1737 -2247
2284 -238 252 -486 524 -538 592 -55 72 -106 177 -152 317 -59 178 -82 307
-60 341 14 22 135 27 625 26 l430 -1 5 -70z m-2412 -475 c51 -5 108 -16 127
-24 54 -23 132 -108 168 -184 30 -63 32 -73 31 -177 0 -95 -4 -120 -28 -185
-49 -131 -85 -179 -180 -241 -92 -60 -195 -89 -366 -100 -80 -5 -159 -14 -176
-19 -49 -17 -396 -373 -1278 -1315 -600 -642 -574 -621 -771 -619 -97 1 -132
5 -179 22 -124 46 -215 126 -268 239 -88 185 -49 387 111 573 351 408 1741
1811 1935 1952 52 38 154 68 263 77 129 12 504 12 611 1z m14213 -827 c459
-461 880 -887 935 -948 291 -322 375 -451 382 -592 7 -131 -32 -242 -121 -340
-139 -152 -335 -204 -476 -128 -28 16 -111 83 -183 150 -133 122 -1076 1082
-1434 1460 -104 109 -211 223 -239 252 l-50 52 -170 11 c-341 21 -380 34 -503
165 -44 47 -94 113 -113 147 -31 58 -34 71 -37 170 -11 291 114 398 499 427
57 5 232 9 389 10 l286 1 835 -837z m-6861 407 c419 -13 477 -19 537 -56 91
-57 152 -182 160 -329 9 -159 -27 -261 -130 -367 -77 -79 -143 -113 -268 -138
-152 -30 -371 -40 -1185 -50 -1050 -14 -1369 -1 -1556 64 -232 81 -447 349
-424 529 10 79 49 149 116 210 114 103 188 123 503 136 277 12 1868 12 2247 1z
m-6036 -646 c95 -33 142 -62 209 -133 97 -101 150 -245 127 -347 -38 -168
-170 -315 -1281 -1424 l-837 -835 -5 -805 c-5 -840 -9 -920 -50 -1030 -29 -78
-121 -169 -202 -200 -122 -46 -243 -37 -365 26 -59 31 -213 157 -233 191 -5 8
-9 488 -10 1066 l-2 1052 32 65 c69 138 306 393 1158 1246 807 808 1027 1013
1190 1108 102 60 141 63 269 20z m10121 12 c84 -22 125 -44 196 -102 218 -178
750 -687 1334 -1275 460 -464 621 -637 753 -811 139 -183 152 -217 172 -438
17 -191 24 -1082 11 -1440 -15 -430 -31 -515 -117 -609 -32 -37 -42 -42 -73
-39 -32 2 -36 0 -33 -19 4 -30 -38 -50 -134 -64 -160 -22 -270 15 -383 129
-77 76 -85 99 -101 260 -8 85 -26 880 -33 1459 l-2 202 -765 768 c-930 933
-1275 1295 -1316 1381 -67 142 -18 371 103 483 126 118 247 153 388 115z
m-8860 -1347 c22 -6 81 -31 131 -55 145 -70 211 -149 235 -280 28 -151 -29
-262 -285 -554 -55 -63 -379 -394 -718 -736 l-618 -620 0 -298 c0 -163 -5
-340 -10 -394 -29 -264 -108 -427 -240 -489 -116 -54 -274 -57 -381 -6 -57 27
-243 175 -260 207 -3 6 -12 236 -19 511 -16 624 -11 671 85 854 68 129 202
278 695 775 880 887 1006 1001 1176 1071 65 27 143 32 209 14z m7636 -12 c162
-55 299 -167 709 -577 560 -560 1117 -1168 1170 -1276 76 -154 93 -1088 25
-1330 -46 -160 -197 -264 -385 -264 -134 0 -247 47 -332 138 -86 92 -127 199
-135 358 -5 100 10 539 22 639 l5 40 -511 525 c-828 849 -1079 1125 -1124
1234 -32 75 -12 230 42 329 48 87 163 171 270 196 72 17 174 12 244 -12z"/>
<path d="M21925 8270 c-19 -36 -19 -90 -2 -115 21 -27 35 -11 42 49 11 88 -10
124 -40 66z"/>
</g>
</svg>
